<svg width="24" height="19" viewBox="0 0 24 19" fill="none" xmlns="http://www.w3.org/2000/svg">
<path d="M1.87891 0.390625L23.2891 17.2656C23.5 17.4414 23.5703 17.8281 23.3594 18.0391C23.1836 18.2852 22.832 18.3555 22.5859 18.1445L1.21094 1.26953C0.964844 1.09375 0.894531 0.707031 1.10547 0.496094C1.28125 0.25 1.66797 0.179688 1.87891 0.390625ZM22.2695 9.70703C21.918 10.5508 21.2852 11.7109 20.3711 12.8359L19.4922 12.1328C20.3359 11.0781 20.8984 10.0586 21.25 9.25C20.7578 8.125 19.7383 6.4375 18.2266 5.03125C16.7148 3.625 14.7109 2.5 12.25 2.5C10.8438 2.5 9.57812 2.88672 8.48828 3.44922L7.53906 2.67578C8.875 1.90234 10.4219 1.375 12.25 1.375C15.0625 1.375 17.3477 2.67578 19 4.22266C20.6523 5.73438 21.7422 7.5625 22.2695 8.82812C22.375 9.10938 22.375 9.42578 22.2695 9.70703ZM4.09375 5.69922L4.97266 6.40234C4.12891 7.42188 3.56641 8.47656 3.25 9.25C3.70703 10.375 4.72656 12.0625 6.23828 13.4688C7.75 14.875 9.75391 16 12.25 16C13.6211 16 14.8867 15.6484 15.9766 15.0859L16.9258 15.8594C15.625 16.6328 14.043 17.125 12.25 17.125C9.40234 17.125 7.11719 15.8594 5.46484 14.3125C3.8125 12.7656 2.72266 10.9375 2.19531 9.70703C2.08984 9.42578 2.08984 9.10938 2.19531 8.82812C2.54688 7.98438 3.17969 6.82422 4.09375 5.69922ZM12.25 13.75C9.75391 13.75 7.75 11.7461 7.75 9.25C7.75 9.03906 7.75 8.82812 7.78516 8.61719L8.875 9.46094C8.98047 11.2539 10.457 12.625 12.25 12.625C12.4258 12.625 12.6367 12.625 12.8125 12.5898L13.9023 13.4336C13.375 13.6445 12.8125 13.75 12.25 13.75ZM16.75 9.25V9.28516C16.75 9.49609 16.7148 9.70703 16.6797 9.91797L15.5898 9.07422C15.4844 7.28125 14.043 5.91016 12.25 5.91016C12.0391 5.91016 11.8281 5.91016 11.6523 5.94531L10.5625 5.10156C11.0898 4.89062 11.6523 4.75 12.25 4.75C14.7109 4.75 16.75 6.78906 16.75 9.25Z" fill="#111111"/>
</svg>
