<svg width="16" height="19" viewBox="0 0 16 19" fill="none" xmlns="http://www.w3.org/2000/svg">
<path d="M4.5 4.75V7H11.25V4.75C11.25 2.88672 9.73828 1.375 7.875 1.375C6.01172 1.375 4.5 2.88672 4.5 4.75ZM3.375 7V4.75C3.375 2.28906 5.37891 0.25 7.875 0.25C10.3359 0.25 12.375 2.28906 12.375 4.75V7H12.9375C14.4844 7 15.75 8.26562 15.75 9.8125V15.4375C15.75 17.0195 14.4844 18.25 12.9375 18.25H2.8125C1.23047 18.25 0 17.0195 0 15.4375V9.8125C0 8.26562 1.23047 7 2.8125 7H3.375ZM1.125 9.8125V15.4375C1.125 16.3867 1.86328 17.125 2.8125 17.125H12.9375C13.8516 17.125 14.625 16.3867 14.625 15.4375V9.8125C14.625 8.89844 13.8516 8.125 12.9375 8.125H2.8125C1.86328 8.125 1.125 8.89844 1.125 9.8125Z" fill="#111111"/>
</svg>
