<svg width="16" height="19" viewBox="0 0 16 19" fill="none" xmlns="http://www.w3.org/2000/svg">
<path d="M11.25 4.75C11.25 3.55469 10.582 2.46484 9.5625 1.83203C8.50781 1.23438 7.20703 1.23438 6.1875 1.83203C5.13281 2.46484 4.5 3.55469 4.5 4.75C4.5 5.98047 5.13281 7.07031 6.1875 7.70312C7.20703 8.30078 8.50781 8.30078 9.5625 7.70312C10.582 7.07031 11.25 5.98047 11.25 4.75ZM3.375 4.75C3.375 3.16797 4.21875 1.69141 5.625 0.882812C6.99609 0.0742188 8.71875 0.0742188 10.125 0.882812C11.4961 1.69141 12.375 3.16797 12.375 4.75C12.375 6.36719 11.4961 7.84375 10.125 8.65234C8.71875 9.46094 6.99609 9.46094 5.625 8.65234C4.21875 7.84375 3.375 6.36719 3.375 4.75ZM1.125 17.125H14.625C14.5547 14.3477 12.2695 12.0625 9.45703 12.0625H6.25781C3.44531 12.0625 1.16016 14.3477 1.125 17.125ZM0 17.2305C0 13.75 2.77734 10.9375 6.25781 10.9375H9.45703C12.9375 10.9375 15.75 13.75 15.75 17.2305C15.75 17.793 15.2578 18.25 14.6953 18.25H1.01953C0.457031 18.25 0 17.793 0 17.2305Z" fill="#111111"/>
</svg>
